<?xml version="1.0" encoding="UTF-8"?>
<!DOCTYPE svg PUBLIC "-//W3C//DTD SVG 1.1//EN" "http://www.w3.org/Graphics/SVG/1.1/DTD/svg11.dtd">
<!-- Creator: CorelDRAW 2020 (64-Bit) -->
<svg xmlns="http://www.w3.org/2000/svg" xml:space="preserve" width="600px" height="200px" version="1.1" style="shape-rendering:geometricPrecision; text-rendering:geometricPrecision; image-rendering:optimizeQuality; fill-rule:evenodd; clip-rule:evenodd"
viewBox="0 0 600 200"
 xmlns:xlink="http://www.w3.org/1999/xlink"
 xmlns:xodm="http://www.corel.com/coreldraw/odm/2003">
 <defs>
  <style type="text/css">
   <![CDATA[
    .fil1 {fill:none}
    .fil0 {fill:#8243C5}
    .fil3 {fill:#D7980B}
    .fil4 {fill:#F8C937}
    .fil2 {fill:#FEE32B}
   ]]>
  </style>
 </defs>
 <g id="Layer_x0020_1">
  <metadata id="CorelCorpID_0Corel-Layer"/>
  <g id="_2189402878352">
   <path class="fil0" d="M73.77 50.05l-0.03 20.23c0.6,3.01 3.77,10.45 6.26,12.99l22.3 -2.19c12.3,0.49 -9.23,17.68 -4.46,27.92 23.08,49.52 -4.59,27.69 -20.84,23.49 -1.74,1.84 -1.33,2.22 -3.68,3.14 2.26,2.28 1.23,8.66 1.26,12.37 0.04,4.79 0.1,9.56 0.16,14.34 3.16,1.97 5.22,18.05 5.81,23.26 8.62,1.95 95.77,-2.25 111.44,-2.97 18.84,-0.86 36.98,-0.45 56.04,-0.25 15.17,0.16 41.74,2.75 56.27,0.51l191.33 -3.46 0.09 -9.36 4.33 -0.03 0.51 -18.92c-1.72,-2.9 -4.53,-5.56 -6.91,-7.81 -2.78,-2.65 -4.5,-5.92 -8.91,-4.96 -8.36,1.82 -10.36,8 -23.08,5.56 0.28,-10.1 4.18,-18.1 7.35,-25.9 4.59,-11.34 -6.59,-13.57 -6.6,-25.63 7.35,-0.08 16.79,3.3 23.23,1.25 1.69,-1.12 6.18,-14.36 13.36,-23.07l4.31 -0.26 0.21 -6.1 2.17 -46.46c-13.15,-0.48 -25.93,0.07 -38.7,0.37 -8.45,0.2 -29.58,2.52 -36.26,1.22l-0.55 -4.57 -309.46 -10.87 0.7 4.75c27.67,5.6 37.34,-7.53 36.89,10.8l-84.75 -1.67c-0.36,11.12 2.5,20.49 3.63,31.65l-3.42 0.63z"/>
   <path class="fil1" d="M120.72 3.89l309.46 10.87 0.76 -4.44c8.91,-2.53 73.92,-3.12 87.72,-2.86 -0.04,3.08 -6.41,48.07 -8.24,53.68 -1.31,4.04 -1.46,3.12 -6.9,3.06l-0.21 6.1c3.55,7.82 2.46,21.49 2.57,32.01 7.78,3.94 16.49,11.74 22.19,14.35l-0.19 9.21c-7.55,4.78 -13.86,2.84 -21.1,6.13 0.15,7.12 3.45,15.18 1.9,22.69 -6.12,0.81 -4.17,-1.76 -8.12,-3.57l-0.51 18.92c7.87,0.04 4.93,4.13 5.52,12.62 0.38,5.4 0.43,11.55 0.89,17.34l93.54 0 0 -116.17 -10 -0.12c-4.37,4.28 -2.77,7.21 -8.48,8.49 -1.21,-3.09 -1.53,-6.74 -2.72,-10.04 -1.76,-4.87 -3.33,-2.38 -7.02,-6.16 1.44,-3.14 4.23,-4.42 7.19,-5.98 -0.04,-5.34 -2.02,-7.67 0.51,-12.47 4.11,-0.02 4.83,4.74 8.52,8.5 5.25,-0.26 8.32,-1.52 12,1.1l0 -67.15 -504.78 0 23.78 1.37 1.72 2.52z"/>
   <path class="fil1" d="M0 66.97c4.39,-2.78 6.43,-1.13 12,-0.99 2.09,-2.86 4.93,-8.31 8.65,-8.52 2.21,4.62 0.45,7.54 0.36,12.6 5.48,2.54 5.92,2.79 7.2,5.94 -3.75,3.8 -5.03,0.76 -6.99,6.08 -1.46,4 -0.5,6.16 -3.22,9.82 -3.02,-0.46 -2.09,0.21 -4.12,-2.82 -6.15,-9.13 -2.26,-4.01 -13.88,-5.16l0 116.08 495.99 0c-6.58,-3.78 -41.19,-2.73 -51.12,-3.29 -18.11,-1.01 -37.56,-0.57 -55.87,-1.02 -16.97,-0.42 -35.48,-1.96 -52.48,-3.2 -17.9,-1.31 -37.05,-0.12 -54.73,-1.59 -15.84,-1.32 -87.7,1.11 -109.79,1.39 -17.5,0.22 -35.93,1 -54.04,1.87 -16.53,0.79 -35.89,4.67 -52.24,4.12l0.54 -35.05 8.48 -0.89c-0.06,-4.78 -0.12,-9.55 -0.16,-14.34 -0.03,-3.71 1,-10.09 -1.26,-12.37 -2.93,4.1 -5.37,5.66 -9.15,9.53 -3.3,3.38 -5.28,7.58 -11.37,6.86 -0.57,-8.54 3.13,-22.09 2.55,-26.36 -5.94,-1.13 -11.08,-1.5 -17.02,-3.05 -7.45,-1.95 -7.93,-3.88 -7.37,-12.61 3.29,-4.39 19.15,-14.7 25.31,-17.58 0.16,-7.71 -0.63,-26.93 1.21,-33.01 3.75,-12.41 13.9,8.33 16.26,10.87l0.03 -20.23c-5.22,-1.13 -4.43,-3.43 -5.12,-8.72 -0.46,-3.56 -0.88,-8.08 -1.38,-11.5 -0.86,-5.79 -3.28,-16.96 -2.69,-22.43l7.42 0.19c1.58,-1.97 1.75,-4.12 2,-4.8l11 0.06c1.53,-1.89 1.66,2.37 1.1,-2.85l-86.1 0 0 66.97z"/>
   <path class="fil2" d="M495.99 200l10.47 0c-0.46,-5.79 -0.51,-11.94 -0.89,-17.34 -0.59,-8.49 2.35,-12.58 -5.52,-12.62l-4.33 0.03 -0.09 9.36 0.31 12.88c-25.48,0.69 -112.48,-4.29 -142.73,-7.37l-46.2 -1.04c-1.84,-0.39 -1.86,-0.52 -2.71,-1.01 -14.53,2.24 -41.1,-0.35 -56.27,-0.51 -19.06,-0.2 -37.2,-0.61 -56.04,0.25 -15.67,0.72 -102.82,4.92 -111.44,2.97 -0.59,-5.21 -2.65,-21.29 -5.81,-23.26l-8.48 0.89 -0.54 35.05c16.35,0.55 35.71,-3.33 52.24,-4.12 18.11,-0.87 36.54,-1.65 54.04,-1.87 22.09,-0.28 93.95,-2.71 109.79,-1.39 17.68,1.47 36.83,0.28 54.73,1.59 17,1.24 35.51,2.78 52.48,3.2 18.31,0.45 37.76,0.01 55.87,1.02 9.93,0.56 44.54,-0.49 51.12,3.29z"/>
   <path class="fil3" d="M73.32 135.63c2.35,-0.92 1.94,-1.3 3.68,-3.14 16.25,4.2 43.92,26.03 20.84,-23.49 -4.77,-10.24 16.76,-27.43 4.46,-27.92l-22.3 2.19c-2.49,-2.54 -5.66,-9.98 -6.26,-12.99 -2.36,-2.54 -12.51,-23.28 -16.26,-10.87 -1.84,6.08 -1.05,25.3 -1.21,33.01 -6.16,2.88 -22.02,13.19 -25.31,17.58 -0.56,8.73 -0.08,10.66 7.37,12.61 5.94,1.55 11.08,1.92 17.02,3.05 0.58,4.27 -3.12,17.82 -2.55,26.36 6.09,0.72 8.07,-3.48 11.37,-6.86 3.78,-3.87 6.22,-5.43 9.15,-9.53z"/>
   <path class="fil3" d="M500.56 151.12c3.95,1.81 2,4.38 8.12,3.57 1.55,-7.51 -1.75,-15.57 -1.9,-22.69 7.24,-3.29 13.55,-1.35 21.1,-6.13l0.19 -9.21c-5.7,-2.61 -14.41,-10.41 -22.19,-14.35 -0.11,-10.52 0.98,-24.19 -2.57,-32.01l-4.31 0.26c-7.18,8.71 -11.67,21.95 -13.36,23.07 -6.44,2.05 -15.88,-1.33 -23.23,-1.25 0.01,12.06 11.19,14.29 6.6,25.63 -3.17,7.8 -7.07,15.8 -7.35,25.9 12.72,2.44 14.72,-3.74 23.08,-5.56 4.41,-0.96 6.13,2.31 8.91,4.96 2.38,2.25 5.19,4.91 6.91,7.81z"/>
   <path class="fil2" d="M35.15 110c8.03,5.2 21.6,5.82 28.22,10l-5.06 26.68 19.62 -18.82c6.18,-6.23 13.54,0.16 25.68,5.66 -1.64,-8.75 -5.54,-16.84 -8.61,-24.59 -3.71,-9.37 6.1,-16.09 8.78,-25.49l-25.75 2.97c-5.45,-7.34 -6.56,-18.07 -13.14,-24.43l-3.1 26.23c-0.28,4.22 1.33,2.76 -3.01,5.54 -4.3,2.75 -8.2,4.78 -12.44,7.6l-11.19 8.65z"/>
   <path class="fil2" d="M487 96.73l-22.75 -2.22c1.9,6.59 9.89,14.42 8.21,20.84 -1.9,7.24 -5.98,13.87 -8.08,22.8 8.03,-2.79 16.48,-10.72 22.89,-4.45 4.74,4.64 11.75,11.51 15.39,16.46l0.47 -5.28c-0.82,-6.17 -3.25,-13.43 -3.56,-19.14 6.79,-0.78 19.95,-5.02 24.88,-8.06 -1.69,-1.24 -3.28,-2.66 -5.11,-3.92 -4.8,-3.31 -13.8,-9.93 -18.61,-11.45 0.79,-5.09 -1.67,-20.37 -2.46,-26.34 -5.99,6.07 -7.99,16.03 -11.27,20.76z"/>
   <path class="fil4" d="M73.77 50.05l3.42 -0.63c-1.13,-11.16 -3.99,-20.53 -3.63,-31.65l84.75 1.67c0.45,-18.33 -9.22,-5.2 -36.89,-10.8l-0.7 -4.75 -1.72 -2.52 -23.78 -1.37 -9.12 0c0.56,5.22 0.43,0.96 -1.1,2.85l-11 -0.06c-0.25,0.68 -0.42,2.83 -2,4.8l-7.42 -0.19c-0.59,5.47 1.83,16.64 2.69,22.43 0.5,3.42 0.92,7.94 1.38,11.5 0.69,5.29 -0.1,7.59 5.12,8.72z"/>
   <path class="fil1" d="M304.3 182.89c0.85,0.49 0.87,0.62 2.71,1.01l46.2 1.04c30.25,3.08 117.25,8.06 142.73,7.37l-0.31 -12.88 -191.33 3.46z"/>
   <path class="fil4" d="M430.18 14.76l0.55 4.57c6.68,1.3 27.81,-1.02 36.26,-1.22 12.77,-0.3 25.55,-0.85 38.7,-0.37l-2.17 46.46c5.44,0.06 5.59,0.98 6.9,-3.06 1.83,-5.61 8.2,-50.6 8.24,-53.68 -13.8,-0.26 -78.81,0.33 -87.72,2.86l-0.76 4.44z"/>
   <path class="fil4" d="M0 66.97l0 16.95c11.62,1.15 7.73,-3.97 13.88,5.16 2.03,3.03 1.1,2.36 4.12,2.82 2.72,-3.66 1.76,-5.82 3.22,-9.82 1.96,-5.32 3.24,-2.28 6.99,-6.08 -1.28,-3.15 -1.72,-3.4 -7.2,-5.94 0.09,-5.06 1.85,-7.98 -0.36,-12.6 -3.72,0.21 -6.56,5.66 -8.65,8.52 -5.57,-0.14 -7.61,-1.79 -12,0.99z"/>
   <path class="fil4" d="M600 83.83l0 -16.68c-3.68,-2.62 -6.75,-1.36 -12,-1.1 -3.69,-3.76 -4.41,-8.52 -8.52,-8.5 -2.53,4.8 -0.55,7.13 -0.51,12.47 -2.96,1.56 -5.75,2.84 -7.19,5.98 3.69,3.78 5.26,1.29 7.02,6.16 1.19,3.3 1.51,6.95 2.72,10.04 5.71,-1.28 4.11,-4.21 8.48,-8.49l10 0.12z"/>
   <path class="fil4" d="M567.04 149c-2.85,3.03 -5.77,3 -7.3,7 3.41,3.27 5.39,1.34 7.09,6.2 1.05,2.99 1.56,7.1 2.6,10.13 5.91,-1.51 3.38,-2 6.63,-6.34 2.92,-3.9 6.28,-1.83 11.5,-1.76 -0.62,-6.69 -2.26,-3.49 -4.54,-8.23 2.79,-4.09 5.63,-3.41 4.07,-10.04l-11.09 0.02c-4.45,-4.73 -3.46,-6.7 -8,-8.57 -2.78,3.58 -1.57,6.64 -0.96,11.59z"/>
   <path class="fil2" d="M24 146.07c-3.24,-0.16 -9.02,-1.73 -11.07,1.09 -1.89,3.93 2.07,5.65 3.96,8.84 -2.51,5.07 -4.17,1.36 -4.27,8.05l10.64 -0.35c1.99,6.36 3.47,7.61 7.31,8.59 1.26,-3.23 1.51,-6.94 2.65,-10.18 1.71,-4.86 3.63,-2.84 7.03,-6.11 -1.43,-3.07 -4.51,-4.77 -7.31,-6.01 0.11,-4.47 1.65,-8.96 -0.3,-12.55 -4.04,0.32 -5.87,6.02 -8.64,8.63z"/>
   <path class="fil4" d="M203 30.2l-10.77 -0.32c-0.79,5.62 1.94,6.86 3.85,10.12 -2.14,4.72 -3.62,1.78 -4.24,7.75 10.98,-0.04 8.96,-1.59 12.9,4.47l3.26 3.18c3.32,-3.25 2.33,-5.83 3.75,-10.06 1.38,-4.12 3.48,-2.62 6.95,-5.34 -1.36,-3.62 -3.5,-2.73 -6.42,-6.29l-0.31 -1.8c-0.43,-6.61 1.24,-6.37 -0.97,-10.09 -3.4,0.95 -6.05,6.18 -8,8.38z"/>
   <path class="fil4" d="M376.58 30.41c-5.1,0.07 -6.26,-0.92 -11.6,0.44 -0.04,5.44 1.8,4.7 4.35,9.15 -1.92,3.88 -3.4,3.38 -4.59,7.8l10.26 -0.21c2.93,3.75 3.23,7.2 7,8.1 2.88,-4.13 1.35,-5.21 2.9,-10.15 1.56,-4.97 3.04,-1.98 7.07,-5.54 -1.09,-3.38 -0.38,-1.41 -7.57,-6.83 0.94,-3.63 1.84,-7.17 0.16,-10.61 -3.78,-0.77 -4.29,3.52 -7.98,7.85z"/>
  </g>
 </g>
</svg>
